<svg xmlns="http://www.w3.org/2000/svg" width="179" height="60" viewBox="0 0 179 60">
    <g fill="#FFF" fill-rule="evenodd">
        <path d="M70.23 46h-2.754c-2.736 0-4.728-2.24-4.45-5.003l2.365-23.528c.082-.811.799-1.469 1.602-1.469h2.224c2.923 0 5.052 2.393 4.755 5.345l-2.35 23.379c-.07.705-.694 1.276-1.392 1.276M66 10.014c0-1.244.46-2.225 1.381-2.94C68.301 6.358 69.54 6 71.095 6c1.365 0 2.357.273 2.976.817.62.545.929 1.268.929 2.17 0 1.151-.437 2.108-1.31 2.87-.873.763-2.15 1.143-3.833 1.143C67.286 13 66 12.005 66 10.014M53.942 15.717c-3.019 0-6.615.504-8.818 2.757-1.968 2.011-2.868 4.943-3.323 7.643 0 0-.293-5.778 3.043-10.342l.485-4.805C45.61 8.225 43.59 6 40.815 6h-3.348a.978.978 0 0 0-.955.857L33.027 40.81C32.733 43.675 34.844 46 37.742 46h2.928a1.2 1.2 0 0 0 1.171-1.053L43.33 30.45h.018C43.805 26 45.744 22.97 49.5 22.97c1.95 0 3.421 1.335 3.167 3.807L51.173 41.34C50.91 43.914 52.803 46 55.403 46h3.512a1.15 1.15 0 0 0 1.122-1.008l1.87-18.214c.731-7.127-2.94-11.06-7.965-11.06M97.196 31.78c-.476 4.693-3.136 8.496-5.941 8.496-2.806 0-4.694-3.803-4.218-8.495.475-4.693 3.136-8.496 5.941-8.496 2.806 0 4.694 3.803 4.218 8.496m-.278-15.716c-3.012.02-6.124 1.83-8.233 4.696.282-2.777-1.726-4.761-4.5-4.761h-3.35a.983.983 0 0 0-.955.868l-3.853 37.878C75.733 57.648 77.844 60 80.743 60h2.928c.588 0 1.113-.477 1.173-1.065l1.597-12.566c-2.676-3.862-2.163-9.96-2.163-9.96.045 1.349.543 2.708 1.03 3.95.733 1.862 1.642 3.51 3.203 4.802 1.393 1.153 3.11 1.873 4.924 1.948.11.005.222.007.334.007 7.173 0 12.221-7.354 13.076-15.785.856-8.431-1.754-15.322-9.927-15.266M118.325 30.145s.738-4.405 2.218-5.762c1.48-1.358 3.457-1.596 4.665-.238 1.207 1.358.297 3.37-1.183 4.728-1.48 1.358-5.7 1.272-5.7 1.272m16.633-5.716c.42-4.187-2.253-8.429-10.981-8.429-7.348 0-13.98 6.716-14.812 15-.832 8.284 1.236 15 11.798 15 3.902 0 10.642-.444 11.055-4.555a5.75 5.75 0 0 0 .027-.43c.06-2.688-2.978-4.111-5.231-2.429-.893.667-2.345 1.41-4.65 1.282-4.334-.24-4.123-4.319-4.116-4.381-4.118-.877-6.777-2.847-6.777-2.847 3.723 1.97 8.65 1.878 8.65 1.878 11.123.194 14.638-6.118 15.037-10.09M156.35 16.086c-1.967-.148-3.913.534-5.445 1.722-3.421 2.655-3.978 6.957-4.165 10.721-1.3-5.198.79-8.363 1.34-9.664-1.153-1.63-2.455-2.697-4.737-2.841-1.558-.1-3.712.034-3.916 1.968l-2.399 22.79c-.303 2.882 1.873 5.218 4.861 5.218h2.57c.761 0 1.442-.595 1.52-1.33l.88-8.37c.767-5.222 1.393-12.842 4.424-12.842 1.91 0 1.905 1.476 1.587 4.6-.065.635.378 1.167 1.025 1.233.18.018.355.03.499.03 4.081 0 7.694-3.433 7.604-7.469-.068-3.078-2.467-5.527-5.648-5.766M31.238 12.208C30.73 11 29.94 9.95 28.868 9.055c-1.073-.896-2.427-1.599-4.064-2.112-.309-.096-.631-.18-.962-.258.11-1.343.034-2.979-.413-4.075-.54-1.322-1.885-2.093-4.035-2.31L16.487.006c-.564-.057-.904.275-1.02.995-.1.622-.568 2.739-.809 3.992 5.755-.118 8.12 1.49 8.12 1.49-3.477-.6-6.834-.14-7.866.032a16.503 16.503 0 0 0-3.088.84c-2.014.786-3.716 1.819-5.108 3.098a16.767 16.767 0 0 0-3.414 4.36 25.015 25.015 0 0 0-2.06 4.962 28.297 28.297 0 0 0-.988 4.908C.084 26.273 0 27.672 0 28.878c0 3.364.47 6.16 1.411 8.39.94 2.23 2.163 4.003 3.669 5.319a13.22 13.22 0 0 0 3.526 2.221l.088.04c.492.206.998.386 1.521.536.62.177 1.238.322 1.857.44.888.141 1.907.244 3.073.278 0 0-3.09.901-7.22-.015-.046 1.2.063 2.338.445 3.27.545 1.327 1.912 2.105 4.1 2.33l2.96.306c.575.06.922-.271 1.042-.993.13-.77.813-4.235.936-4.839a21.69 21.69 0 0 0 1.016-.084c4.208-.461 8.99-3.138 10.691-7.069.438-1.011.476-2.064.114-3.16-.274-.83-.693-1.449-1.256-1.857a4.971 4.971 0 0 0-1.752-.828c-.605-.145-1.166-.189-1.683-.132-.517.058-.873.116-1.068.177-.427.133-.714.4-.86.8-.148.4-.33.852-.549 1.357-.219.506-.558 1.008-1.014 1.503-.458.497-1.193.903-2.203 1.218-.609.19-1.18.299-1.717.33a4.913 4.913 0 0 1-1.017-.04 4.66 4.66 0 0 1-2.071-.841c-1.37-.993-2.179-2.668-2.718-4.324a14.308 14.308 0 0 1-.548-2.39c-.238-1.638-.232-3.312-.134-4.959.056-.95.188-1.937.395-2.961.206-1.023.488-2.03.846-3.016a10.443 10.443 0 0 1 1.41-2.66 7.1 7.1 0 0 1 2.146-1.919c.846-.493 1.871-.74 3.075-.74.827 0 1.477.137 1.947.41.217.127.406.29.57.485.194.23.353.506.475.832.225.603.357 1.362.395 2.276.037.914.075 1.993.113 3.235 0 .403.103.668.31.796.206.128.724.191 1.552.191 2.596 0 4.6-.538 6.01-1.617C31.295 20.096 32 18.386 32 16.046a9.798 9.798 0 0 0-.762-3.838M175.728 4.704a5.359 5.359 0 0 1 1.96 1.976c.48.832.72 1.739.72 2.72 0 .97-.24 1.875-.72 2.712a5.444 5.444 0 0 1-1.968 2 5.274 5.274 0 0 1-2.752.744 5.246 5.246 0 0 1-2.728-.736 5.358 5.358 0 0 1-1.952-1.984 5.365 5.365 0 0 1-.712-2.704c0-.97.24-1.875.72-2.712a5.464 5.464 0 0 1 1.96-2A5.232 5.232 0 0 1 173 3.976a5.29 5.29 0 0 1 2.728.728zm-.592 8.376a4.247 4.247 0 0 0 2.12-3.68c0-.768-.187-1.475-.56-2.12A4.216 4.216 0 0 0 173 5.176c-.79 0-1.51.192-2.16.576a4.265 4.265 0 0 0-1.544 1.552 4.156 4.156 0 0 0-.568 2.128c0 .768.187 1.475.56 2.12a4.18 4.18 0 0 0 1.528 1.536 4.173 4.173 0 0 0 2.152.568c.79 0 1.512-.192 2.168-.576zm-.104-3.608a1.65 1.65 0 0 1-.736.648l1.136 1.728h-1.328l-.832-1.504h-1.184v1.504h-1.152v-5.2h2.208c.683 0 1.21.157 1.584.472.373.315.56.755.56 1.32 0 .405-.085.75-.256 1.032zm-2.944-.056h1.056c.33 0 .587-.08.768-.24.181-.16.272-.39.272-.688 0-.299-.09-.525-.272-.68-.181-.155-.437-.232-.768-.232h-1.056v1.84z"/>
    </g>
</svg>
